# xmcd
#
# Track frame offsets: 
#        150
#        12896
#        28163
#        41241
#        53977
#        66588
#        77972
#        88623
#        99670
#        113329
#        123432
#        135460
#        148045
#        158324
#        169831
#        180611
#        189960
#        200013
#        211946
#        221897
#        234614
#        248470
#        258602
#        270283
#        281704
#
# Disc length: 3867 seconds
#
# Revision: 0
# Processed by: cddbd v1.5.2PL0 Copyright (c) Steve Scherf et al.
# Submitted via: ExactAudioCopy v1.3
#
DISCID=6a0f1919
DTITLE=The Very Best Of Country - 75 Orginal Recordings Featuring
DYEAR=2013
DGENRE=Country
TTITLE0=1. Aching, Breaking Heart - George Jones
TTITLE1=2. The Blizzard - Jim Reeves
TTITLE2=3. It Keeps Right On A-Hurtin' - Johnny Tillotson
TTITLE3=4. I Fall To Pieces - Patsy Cline
TTITLE4=5. Peace In the Valley - Johnny Cash
TTITLE5=6. Crazy Arms - Ray Price
TTITLE6=7. Unloved Unwanted - Kitty Wells
TTITLE7=8. Singin' The Blues - Marty Robbins
TTITLE8=9. Long Black Limousine - Glen Campbell
TTITLE9=10. Touch Me - Willie Nelson
TTITLE10=11. A Wound Time Can't Erase - Stonewall Jackson
TTITLE11=12. A Satisfied Mind - Porter Wagoner
TTITLE12=13. I'm A Honky Tonk Girl - Loretta Lynn
TTITLE13=14. In Them Old Cottonfields Back Home - Johnny Cash
TTITLE14=15. My Name Is Mud - James O'Gwynn
TTITLE15=16. Half Breed - Ricky Nelson
TTITLE16=17. The Best Dressed Beggar (In Town) - Carl Smith
TTITLE17=18. Foolin' Around - Buck Owens
TTITLE18=19. Heartaches - Patsy Cline
TTITLE19=20. North To Alaska - Johnny Horton
TTITLE20=21. The Long Black Veil - Lefty Frizzell
TTITLE21=22. Black Cloud - Leroy Van Dyke
TTITLE22=23. I’m No Longer In Your Heart - Melba Montgomery
TTITLE23=24. Oh Lonesome Me - Don Gibson
TTITLE24=25. I'm Free From The Chain Gang Now - Johnny Cash
EXTD=
EXTT0=
EXTT1=
EXTT2=
EXTT3=
EXTT4=
EXTT5=
EXTT6=
EXTT7=
EXTT8=
EXTT9=
EXTT10=
EXTT11=
EXTT12=
EXTT13=
EXTT14=
EXTT15=
EXTT16=
EXTT17=
EXTT18=
EXTT19=
EXTT20=
EXTT21=
EXTT22=
EXTT23=
EXTT24=
PLAYORDER=
